<?xml version="1.0" encoding="UTF-8" standalone="no"?>
<svg
   xmlns:dc="http://purl.org/dc/elements/1.1/"
   xmlns:cc="http://creativecommons.org/ns#"
   xmlns:rdf="http://www.w3.org/1999/02/22-rdf-syntax-ns#"
   xmlns:svg="http://www.w3.org/2000/svg"
   xmlns="http://www.w3.org/2000/svg"
   id="svg9224"
   version="1.1"
   viewBox="0 0 26.472434 26.471742"
   height="26.471741mm"
   width="26.472435mm">
  <defs
     id="defs9218" />
  <metadata
     id="metadata9221">
    <rdf:RDF>
      <cc:Work
         rdf:about="">
        <dc:format>image/svg+xml</dc:format>
        <dc:type
           rdf:resource="http://purl.org/dc/dcmitype/StillImage" />
        <dc:title></dc:title>
      </cc:Work>
    </rdf:RDF>
  </metadata>
  <g
     transform="translate(-119.59865,-154.24394)"
     id="layer1">
    <g
       id="g12160"
       transform="matrix(0.35277777,0,0,-0.35277777,-21.209865,194.96817)">
      <g
         id="g812"
         transform="translate(423.7656,44.4854)">
        <path
           d="M 0,0 V 20.541 L -20.539,20.54 C -6.318,12.92 -10.346,2.053 0,0"
           style="fill:#abe7e5;fill-opacity:1;fill-rule:nonzero;stroke:none"
           id="path814" />
      </g>
      <g
         id="g816"
         transform="translate(449.5186,90.7783)">
        <path
           d="m 0,0 c 6.718,-6.719 7.11,-18.641 -0.001,-25.752 -7.11,-7.111 -17.974,-7.777 -25.752,0 -4.684,4.684 -3.119,14.615 1.408,19.143 4.378,4.379 8.213,1.046 6.489,-1.95 -4.092,-7.111 6.46,-16.263 14.455,-8.269 C 1.854,-11.572 1.521,-4.087 0,0"
           style="fill:#abe7e5;fill-opacity:1;fill-rule:nonzero;stroke:none"
           id="path818" />
      </g>
      <g
         id="g820"
         transform="translate(436.6436,94.8613)">
        <path
           d="m 0,0 c -4.531,0 -8.79,-1.765 -11.994,-4.968 -6.611,-6.612 -6.611,-17.371 0,-23.983 3.203,-3.203 7.462,-4.967 11.992,-4.967 4.53,0 8.789,1.764 11.992,4.967 6.613,6.613 6.614,17.372 10e-4,23.984 C 8.789,-1.764 4.53,0 0,0 m -0.002,-36.418 c -5.197,0 -10.084,2.023 -13.76,5.699 -7.587,7.587 -7.587,19.933 0,27.519 3.676,3.676 8.564,5.7 13.762,5.7 5.198,0 10.084,-2.024 13.759,-5.699 7.587,-7.587 7.587,-19.933 -0.001,-27.52 -3.675,-3.676 -8.562,-5.699 -13.76,-5.699"
           style="fill:#47b9bc;fill-opacity:1;fill-rule:nonzero;stroke:none"
           id="path822" />
      </g>
      <g
         id="g824"
         transform="translate(407.5635,63.7754)">
        <path
           d="m 0,0 c 4.836,-3.562 6.912,-7.516 8.643,-10.813 1.705,-3.249 2.994,-5.704 6.309,-6.852 V 0.001 Z m 16.202,-20.54 c -0.081,0 -0.162,0.008 -0.243,0.023 -5.633,1.119 -7.525,4.724 -9.529,8.541 C 4.362,-8.037 2.019,-3.574 -4.928,0.148 -5.433,0.419 -5.688,0.998 -5.549,1.555 -5.41,2.11 -4.91,2.5 -4.337,2.5 l 20.539,10e-4 c 0.331,0 0.65,-0.132 0.884,-0.366 C 17.32,1.9 17.452,1.582 17.452,1.251 V -19.29 c 0,-0.374 -0.168,-0.729 -0.457,-0.966 -0.225,-0.185 -0.506,-0.284 -0.793,-0.284"
           style="fill:#47b9bc;fill-opacity:1;fill-rule:nonzero;stroke:none"
           id="path826" />
      </g>
      <g
         id="g828"
         transform="translate(450.8076,109.7295)">
        <path
           d="m 0,0 -0.001,-17.666 14.954,0.002 c -4.836,3.56 -6.912,7.515 -8.642,10.812 C 4.604,-3.604 3.315,-1.148 0,0 m -1.251,-20.166 c -0.331,0 -0.649,0.132 -0.884,0.366 -0.234,0.235 -0.366,0.553 -0.366,0.884 L -2.5,1.625 c 0,0.374 0.168,0.729 0.457,0.966 0.289,0.237 0.67,0.331 1.036,0.261 5.633,-1.119 7.527,-4.724 9.53,-8.541 2.068,-3.939 4.412,-8.402 11.358,-12.124 0.505,-0.27 0.761,-0.849 0.621,-1.406 -0.139,-0.555 -0.639,-0.945 -1.212,-0.945 z"
           style="fill:#47b9bc;fill-opacity:1;fill-rule:nonzero;stroke:none"
           id="path830" />
      </g>
      <g
         id="g832"
         transform="translate(435.9512,82.5596)">
        <path
           d="m 0,0 c 1.714,1.715 4.494,1.715 6.208,0.001 1.714,-1.714 1.714,-4.495 0,-6.209 -1.714,-1.714 -4.495,-1.714 -6.21,0 C -1.716,-4.494 -1.715,-1.714 0,0"
           style="fill:#abe7e5;fill-opacity:1;fill-rule:nonzero;stroke:none"
           id="path834" />
      </g>
    </g>
  </g>
</svg>
